<?xml version="1.0" encoding="iso-8859-1"?>
<!-- Generator: Adobe Illustrator 19.0.0, SVG Export Plug-In . SVG Version: 6.00 Build 0)  -->
<svg version="1.1" id="Layer_1" xmlns="http://www.w3.org/2000/svg" xmlns:xlink="http://www.w3.org/1999/xlink" x="0px" y="0px"
	 viewBox="0 0 512 512" style="enable-background:new 0 0 512 512;" xml:space="preserve">
<g>
	<g>
		<path fill='#c70101' d="M437.019,74.982C388.667,26.628,324.381,0,256,0S123.333,26.628,74.982,74.982C26.628,123.333,0,187.619,0,256
			s26.628,132.667,74.982,181.019C123.333,485.372,187.619,512,256,512s132.667-26.628,181.019-74.981
			C485.372,388.667,512,324.381,512,256S485.372,123.333,437.019,74.982z M256,491.602c-129.911,0-235.602-105.69-235.602-235.602
			S126.089,20.398,256,20.398S491.602,126.089,491.602,256S385.911,491.602,256,491.602z"/>
	</g>
</g>
<g>
	<g>
		<path fill='#c70101' d="M438.755,243.188l-178.178-89.459c-2.881-1.446-6.273-1.446-9.154,0L73.246,243.188c-3.446,1.731-5.623,5.259-5.623,9.115
			v96.852c0,3.538,1.834,6.823,4.845,8.68c3.012,1.859,6.768,2.024,9.931,0.435L256,271.108l173.602,87.162
			c1.444,0.724,3.012,1.084,4.576,1.084c1.861,0,3.72-0.509,5.356-1.52c3.011-1.858,4.845-5.142,4.845-8.681v-96.852
			C444.378,248.445,442.202,244.918,438.755,243.188z M423.979,332.622l-163.402-82.04c-1.44-0.723-3.008-1.084-4.576-1.084
			c-1.569,0-3.136,0.362-4.576,1.085l-163.402,82.04v-74.027L256,174.257l167.979,84.337V332.622z"/>
	</g>
</g>
<g>
	<g>
		<path fill='#c70101' d="M469.224,200.398c-14.708-56.555-52.274-105.84-103.065-135.221c-4.874-2.823-11.114-1.155-13.935,3.722
			c-2.821,4.875-1.155,11.114,3.722,13.935c46.099,26.667,80.192,71.388,93.537,122.697c1.193,4.592,5.331,7.634,9.864,7.634
			c0.85,0,1.714-0.107,2.574-0.33C467.372,211.418,470.642,205.849,469.224,200.398z"/>
	</g>
</g>
<g>
	<g>
		<path fill='#c70101' d="M333.192,49.602c-2.897-1.083-5.84-2.113-8.751-3.064c-5.354-1.751-11.112,1.174-12.861,6.529
			c-1.749,5.355,1.174,11.112,6.529,12.861c2.64,0.862,5.311,1.798,7.94,2.781c1.177,0.44,2.384,0.649,3.571,0.649
			c4.132,0,8.022-2.531,9.555-6.631C341.146,57.45,338.468,51.575,333.192,49.602z"/>
	</g>
</g>
<g>
</g>
<g>
</g>
<g>
</g>
<g>
</g>
<g>
</g>
<g>
</g>
<g>
</g>
<g>
</g>
<g>
</g>
<g>
</g>
<g>
</g>
<g>
</g>
<g>
</g>
<g>
</g>
<g>
</g>
</svg>
